<svg xmlns="http://www.w3.org/2000/svg" width="69.096" height="24"
     viewBox="0 0 69.096 24" fill="#FFFFFF">
    <path
        d="M9.43 20.26L12.34 20.26L12.34 3.58L8.11 3.58C3.86 3.58 1.63 5.76 1.63 8.98C1.63 11.54 2.86 13.06 5.04 14.62L1.25 20.26L4.39 20.26L8.62 13.94L7.15 12.96C5.38 11.76 4.51 10.82 4.51 8.81C4.51 7.03 5.76 5.83 8.14 5.83L9.43 5.83ZM47.57 19.44L47.57 17.11C46.68 17.71 45.19 18.24 43.80 18.24C41.71 18.24 40.92 17.26 40.80 15.24L47.69 15.24L47.69 13.73C47.69 9.53 45.84 7.94 42.98 7.94C39.50 7.94 37.85 10.61 37.85 14.26C37.85 18.46 39.91 20.50 43.56 20.50C45.38 20.50 46.73 20.02 47.57 19.44ZM65.42 20.50C66.74 20.50 67.68 20.26 68.38 19.75L68.38 17.42C67.66 17.93 66.79 18.24 65.59 18.24C63.55 18.24 62.71 16.66 62.71 14.16C62.71 11.54 63.74 10.20 65.62 10.20C66.72 10.20 67.80 10.58 68.38 10.94L68.38 8.52C67.78 8.18 66.72 7.94 65.30 7.94C61.66 7.94 59.76 10.56 59.76 14.23C59.76 18.26 61.61 20.50 65.42 20.50ZM21.41 8.18L21.41 12.96L17.59 12.96L17.59 8.18L14.74 8.18L14.74 20.26L17.59 20.26L17.59 15.22L21.41 15.22L21.41 20.26L24.26 20.26L24.26 8.18ZM37.15 18L35.88 18L35.88 8.18L27.55 8.18L27.55 9.22C27.55 12.17 27.36 15.98 26.35 18L25.46 18L25.46 23.02L28.10 23.02L28.10 20.26L34.51 20.26L34.51 23.02L37.15 23.02ZM56.69 20.26L59.93 20.26L55.34 13.75L59.38 8.18L56.50 8.18L52.46 13.75L52.46 8.18L49.61 8.18L49.61 20.26L52.46 20.26L52.46 14.33ZM42.94 10.20C44.35 10.20 44.78 11.38 44.78 12.89L44.78 13.13L40.80 13.13C40.87 11.21 41.57 10.20 42.94 10.20ZM33.02 18L28.99 18C29.78 16.18 30 12.89 30 10.80L30 10.44L33.02 10.44Z"></path>
</svg>
