<svg xmlns="http://www.w3.org/2000/svg" width="118.728" height="24"
     viewBox="0 0 118.728 24" fill="#FFFFFF">
    <path
        d="M1.20 3.58L1.20 20.26L4.10 20.26L4.10 5.83L9.29 5.83L9.29 20.26L12.19 20.26L12.19 3.58ZM23.83 19.44L23.83 17.11C22.94 17.71 21.46 18.24 20.06 18.24C17.98 18.24 17.18 17.26 17.06 15.24L23.95 15.24L23.95 13.73C23.95 9.53 22.10 7.94 19.25 7.94C15.77 7.94 14.11 10.61 14.11 14.26C14.11 18.46 16.18 20.50 19.82 20.50C21.65 20.50 22.99 20.02 23.83 19.44ZM19.20 10.20C20.62 10.20 21.05 11.38 21.05 12.89L21.05 13.13L17.06 13.13C17.14 11.21 17.83 10.20 19.20 10.20ZM28.51 8.18L25.87 8.18L25.87 23.74L28.73 23.74L28.73 18.84C29.45 19.92 30.50 20.50 31.73 20.50C34.51 20.50 36.43 18.26 36.43 14.21C36.43 10.18 34.56 7.94 31.87 7.94C30.53 7.94 29.42 8.57 28.66 9.74ZM31.01 18.24C29.50 18.24 28.73 17.02 28.73 14.23C28.73 11.42 29.54 10.20 31.15 10.20C32.71 10.20 33.48 11.42 33.48 14.21C33.48 17.02 32.66 18.24 31.01 18.24ZM47.59 19.44L47.59 17.11C46.70 17.71 45.22 18.24 43.82 18.24C41.74 18.24 40.94 17.26 40.82 15.24L47.71 15.24L47.71 13.73C47.71 9.53 45.86 7.94 43.01 7.94C39.53 7.94 37.87 10.61 37.87 14.26C37.87 18.46 39.94 20.50 43.58 20.50C45.41 20.50 46.75 20.02 47.59 19.44ZM42.96 10.20C44.38 10.20 44.81 11.38 44.81 12.89L44.81 13.13L40.82 13.13C40.90 11.21 41.59 10.20 42.96 10.20ZM54.38 20.26C57.22 20.26 58.90 19.06 58.90 16.75C58.90 15.17 57.94 14.26 56.33 13.97C57.62 13.61 58.44 12.70 58.44 11.26C58.44 9.19 57.07 8.18 54.43 8.18L49.63 8.18L49.63 20.26ZM54.02 10.34C55.06 10.34 55.63 10.78 55.63 11.69C55.63 12.53 55.01 13.03 53.93 13.03L52.49 13.03L52.49 10.34ZM54.07 15.12C55.30 15.12 55.94 15.55 55.94 16.56C55.94 17.66 55.22 18.10 54.07 18.10L52.49 18.10L52.49 15.12ZM65.45 7.94C62.30 7.94 60.12 10.18 60.12 14.23C60.12 18.26 62.30 20.50 65.45 20.50C68.59 20.50 70.78 18.26 70.78 14.21C70.78 10.18 68.59 7.94 65.45 7.94ZM65.45 18.24C63.86 18.24 63.07 17.02 63.07 14.23C63.07 11.42 63.86 10.20 65.45 10.20C67.03 10.20 67.82 11.42 67.82 14.21C67.82 17.02 67.03 18.24 65.45 18.24ZM83.30 18L82.03 18L82.03 8.18L73.70 8.18L73.70 9.22C73.70 12.17 73.51 15.98 72.50 18L71.62 18L71.62 23.02L74.26 23.02L74.26 20.26L80.66 20.26L80.66 23.02L83.30 23.02ZM79.18 18L75.14 18C75.94 16.18 76.15 12.89 76.15 10.80L76.15 10.44L79.18 10.44ZM89.09 14.06C87.91 14.06 87.36 13.44 87.36 11.98L87.36 8.18L84.50 8.18L84.50 11.95C84.50 14.88 85.90 16.27 88.39 16.27C89.42 16.27 90.29 16.01 90.96 15.60L90.96 20.26L93.82 20.26L93.82 8.18L90.96 8.18L90.96 13.54C90.46 13.90 89.81 14.06 89.09 14.06ZM96.22 8.18L96.22 20.26L98.69 20.26L103.10 12.79L103.10 20.26L105.89 20.26L105.89 8.18L103.42 8.18L99.00 15.65L99.00 8.18ZM115.37 20.26L118.61 20.26L114.02 13.75L118.06 8.18L115.18 8.18L111.14 13.75L111.14 8.18L108.29 8.18L108.29 20.26L111.14 20.26L111.14 14.33Z"></path>
</svg>
